<svg xmlns="http://www.w3.org/2000/svg" viewBox="0 0 1440 200" preserveAspectRatio="none">
  <defs>
    <linearGradient id="mtGrad1" x1="0%" y1="0%" x2="0%" y2="100%">
      <stop offset="0%" style="stop-color:#1e3a5f;stop-opacity:0.8"/>
      <stop offset="100%" style="stop-color:#0f172a;stop-opacity:1"/>
    </linearGradient>
    <linearGradient id="mtGrad2" x1="0%" y1="0%" x2="0%" y2="100%">
      <stop offset="0%" style="stop-color:#1e293b;stop-opacity:0.6"/>
      <stop offset="100%" style="stop-color:#0f172a;stop-opacity:0.8"/>
    </linearGradient>
    <linearGradient id="mtGrad3" x1="0%" y1="0%" x2="0%" y2="100%">
      <stop offset="0%" style="stop-color:#334155;stop-opacity:0.4"/>
      <stop offset="100%" style="stop-color:#1e293b;stop-opacity:0.6"/>
    </linearGradient>
  </defs>
  <!-- Far mountains (lighter) -->
  <path fill="url(#mtGrad3)" d="M0,200 L0,140 L120,100 L240,130 L360,80 L480,120 L600,70 L720,110 L840,60 L960,100 L1080,50 L1200,90 L1320,65 L1440,95 L1440,200 Z"/>
  <!-- Mid mountains -->
  <path fill="url(#mtGrad2)" d="M0,200 L0,150 L100,120 L200,145 L350,95 L500,140 L650,85 L800,130 L950,75 L1100,120 L1250,80 L1350,110 L1440,90 L1440,200 Z"/>
  <!-- Front mountains (darkest) -->
  <path fill="url(#mtGrad1)" d="M0,200 L0,160 L150,130 L300,160 L450,110 L600,150 L750,100 L900,145 L1050,95 L1200,140 L1350,105 L1440,130 L1440,200 Z"/>
</svg>
